<?xml version="1.0" encoding="utf-8"?>
<!-- Svg Vector Icons : http://www.onlinewebfonts.com/icon -->
<!DOCTYPE svg PUBLIC "-//W3C//DTD SVG 1.1//EN" "http://www.w3.org/Graphics/SVG/1.1/DTD/svg11.dtd">
<svg version="1.1" xmlns="http://www.w3.org/2000/svg" xmlns:xlink="http://www.w3.org/1999/xlink" x="0px" y="0px" viewBox="0 0 256 256" enable-background="new 0 0 256 256" xml:space="preserve">
<metadata> Svg Vector Icons : http://www.onlinewebfonts.com/icon </metadata>
<g><g><g><path fill="currentColor" d="M86.2,4.2c-5.8,2-9.5,5.9-11.1,11.5C73,23.6,77,32,84,34.2c1.3,0.4,6.7,1.4,11.9,2.1c5.3,0.8,9.7,1.4,9.8,1.5c0.1,0.1-0.8,3.7-1.9,8.2c-2.7,10.3-8.4,27.7-14.7,44.8c-2.8,7.5-5,14.1-5,14.8c0,1.6,1.7,2.5,3.3,1.8c0.9-0.4,2.1-3.1,5.8-13.1c7.7-20.6,13-37.1,17.2-53.6c0.3-1.2,0.9-2.1,1.2-2.1c0.4,0,16.7,1.9,36.3,4.3c19.6,2.4,36.8,4.3,38.1,4.3c7.3,0,12.3-4.6,12.3-11.5c0.1-3.5-1-6.3-2.8-7.4c-1.2-0.8-1.4-0.8-2.6-0.1c-1.5,1-1.6,1.8-0.3,4.2c0.6,1.1,1,2.5,1,3.3c0,3.6-3.5,6.6-7.6,6.6c-5-0.1-8.6-3.9-8.9-9.4c-0.3-3.8,0.8-6.2,3.8-9c3-2.7,5.9-3.6,10.4-3.3c5.9,0.4,10.1,3.4,12.8,9.3c2.1,4.5,2,7.9-0.1,17.4c-3.7,16.8-7.8,30.5-16.8,57.1c-13.9,40.9-14.9,44.2-15.8,52.6c-0.6,6.1-0.7,46.1-0.1,61.8c0.2,5.9,0.4,10.7,0.3,10.8c-0.1,0.1-7.4-1-16.4-2.2l-16.3-2.4l-1,1.1c-1.2,1.1-1,3.3,0.3,3.8c0.4,0.2,8.8,1.5,18.6,2.9l17.9,2.6l33.5-15.7c40.6-18.9,37.2-17.2,37.5-18.1c0.8-2-5.7-78.9-9.1-108.5c-3.8-33.1-6.6-47-11.4-56.5c-6.3-12.6-15.2-18.4-31.8-20.8C176.6,13.2,95.3,3.2,92.3,3.2C90.3,3.3,87.7,3.6,86.2,4.2z M135.6,13.3c22.4,2.8,41.2,5.2,41.8,5.4c1.1,0.3,1.1,0.4-1.1,2.8c-1.3,1.4-2.6,3.6-3.2,5.2c-1.2,3.6-1.1,9,0.3,12.1l1.1,2.4l-1.4-0.3c-0.8-0.1-15.6-1.9-33-4c-31.9-3.8-51-6.4-54.5-7.3c-3.7-1-6.9-6.8-6.2-11.2c0.9-5.8,8-11,14-10.2C94.3,8.2,113.2,10.5,135.6,13.3z M210.5,26.1c5.5,3.4,10.4,10.5,13.2,19c4.7,14.1,10,57,14.9,121.3c1.4,17.2,2.2,30.7,2.2,32c0,0.3-14.3,7.1-31.8,15.3c-26.5,12.3-31.8,14.6-32,13.9c-1-2.7-1.4-61.5-0.5-70c0.8-7.5,1.6-10.2,10.5-36.7c14.1-41.7,18.5-56.3,22.2-73.2c2.4-11.2,2.2-13.8-1.7-22.7C207.1,24.1,207.7,24.3,210.5,26.1z"/><path fill="currentColor" d="M51,100.4c-8.2,1.9-11.1,4.3-8.2,6.9c2.9,2.7,3.5,3.6,5.7,7.9c2.5,5.2,6.4,9.8,9.5,11.4c2.9,1.5,8.7,1.8,11.7,0.7c2.9-1.1,5.5-3.4,6.9-6c1.6-3.1,1.5-7.8-0.3-11.2c-1.8-3.4-6.2-7.4-9.9-8.8C62.8,99.8,55.3,99.4,51,100.4z M65.8,106.5c3.6,1.8,6.5,4.8,7,7.1c1,5.2-2.7,9.9-7.7,9.9c-4.6,0-9-3.9-12.4-11.1c-1.2-2.4-2.4-4.8-2.8-5.2c-0.7-0.8-0.7-0.9,0.1-1.2c2.3-0.9,4.4-1.2,8.6-1C62.3,105.1,63.5,105.3,65.8,106.5z"/><path fill="currentColor" d="M93.2,114.2c-6.7,1.8-12.7,6.6-15.6,12.4c-1.8,3.7-3.1,8.7-3.1,12.1c0,1.4-0.2,2.4-0.3,2.4c-0.2,0-1-0.6-1.9-1.2c-2.3-1.8-8.6-4.7-12.5-5.7c-2.4-0.7-5.1-0.9-10.1-0.9c-6.4,0-7.1,0.1-11.7,1.7c-8.5,2.9-16.6,8.7-21.4,15.4c-6.9,9.7-8.4,23.4-4.5,41.7c4.2,20,10.8,32.9,23.2,45.9c5.6,5.9,9.9,9.1,15.2,11.7c4.9,2.4,8,3,13.8,3c5.1,0,8-0.8,10.7-3l1.8-1.4l1.7,1.4c2.9,2.4,5.9,3.1,12.3,2.9c4-0.2,6.6-0.6,8.9-1.4c9.3-3.2,18.6-11.4,28-24.6c4.3-6,6.8-11.1,9.9-20.2c7.4-22.3,8-39.7,1.9-52.2c-1.9-3.8-7.7-10.3-12.2-13.4c-13.8-9.8-31.2-10.4-44.9-1.6l-2.9,1.9v-2.4c0-5.4,2.7-11.9,6.2-15c3.3-3,6.9-4.4,13.7-5.6c2.3-0.4,3.3-2,2.4-3.7c-0.5-0.9-1.1-1.1-3.2-1C97.1,113.4,94.7,113.8,93.2,114.2z M58.1,139.1c7.4,1.8,13.4,5.4,16.1,9.7c1.7,2.7,3.3,2.5,5.5-0.6c4-5.8,14.4-10.1,24.3-10.1c15.5,0,30.7,11.9,33.8,26.5c1.7,7.9,0.7,20.6-2.5,32.2c-3.4,12.6-6.9,20.5-12.6,28.3c-11,15.4-21.8,22.6-33.6,22.7c-4.5,0-6-0.6-8.9-3.9c-2.7-3-4-3-6.4-0.3c-1,1.2-2.2,2.4-2.8,2.8c-2.6,1.9-11,1.7-16.5-0.4c-9.6-3.6-22.7-17.3-29.3-30.5c-4.5-9.1-8.5-22.8-9.9-33.6c-1.5-12.6,0.7-22.8,6.5-30.2c4.4-5.6,13.2-11.3,20.1-12.9C46.3,137.8,53.2,138,58.1,139.1z"/></g></g></g>
</svg>