<svg xmlns="http://www.w3.org/2000/svg" width="1024" height="1024" viewBox="0 0 1024 1024">
  <defs>
    <mask id="b" maskUnits="userSpaceOnUse" x="0" y="0" width="1024" height="1024">
      <rect width="1024" height="1024" fill="#fff"/>
      <circle cx="770" cy="300" r="181" fill="#000"/>
      <!-- дуговая отсечка низа (сектор ±65° за r=340): кольцо под подпись медали -->
      <path d="M 2325 1357 A 2000 2000 0 0 1 -1301 1357 L 204 656 A 340 340 0 0 0 820 656 Z" fill="#000"/>
    </mask>
  </defs>
  <g fill="#fff">
    <g mask="url(#b)">
      <!-- часовня ночью: крыша со шпилем-крестом, комета летит вниз-вправо,
           к бейджу-плюсу -->
      <path d="M 576 406 L 548 434 L 240 120 Z"/>
      <circle cx="560" cy="420" r="26"/>
      <!-- звёзды -->
      <path d="M 180 300 L 192 312 L 180 324 L 168 312 Z"/>
      <path d="M 420 170 L 432 182 L 420 194 L 408 182 Z"/>
      <circle cx="120" cy="480" r="7"/>
      <circle cx="300" cy="260" r="7"/>
      <circle cx="690" cy="560" r="8"/>
      <!-- крыша со шпилем и крестом: поднята над дуговой отсечкой -->
      <path d="M 60 880 L 360 660 L 660 880 Z"/>
      <path d="M 330 660 L 360 530 L 390 660 Z"/>
      <rect x="356" y="446" width="8" height="88" rx="4"/>
      <rect x="332" y="468" width="56" height="8" rx="4"/>
    </g>
    <circle cx="770" cy="300" r="135" fill="none" stroke="#fff" stroke-width="40"/>
    <rect x="748" y="225" width="44" height="150" rx="14"/>
    <rect x="695" y="278" width="150" height="44" rx="14"/>
  </g>
</svg>
