<svg xmlns="http://www.w3.org/2000/svg" width="240" height="240" viewBox="0 0 24 24">
  <rect width="24" height="24" fill="#fff"/>
  <g fill="#1a1712">
    <path d="M12 3.6a1 1 0 1 0 .01 0 1 1 0 0 0-.01 0z"/>
    <path d="M11.3 5h1.4v11h-1.4z"/>
    <path d="M5 6.4h14a.6.6 0 0 1 0 1.2H5a.6.6 0 0 1 0-1.2z"/>
    <path d="M4.6 7.6L7 11.4L9.4 7.6" fill="none" stroke="#1a1712" stroke-width="0.9" stroke-linecap="round" stroke-linejoin="round"/>
    <path d="M14.6 7.6L17 11.4L19.4 7.6" fill="none" stroke="#1a1712" stroke-width="0.9" stroke-linecap="round" stroke-linejoin="round"/>
    <path d="M3.5 11.4a3.5 2 0 0 0 7 0z"/>
    <path d="M13.5 11.4a3.5 2 0 0 0 7 0z"/>
    <path d="M8.6 16h6.8l1.7 3.6a.6.6 0 0 1-.54.86H7.44a.6.6 0 0 1-.54-.86L8.6 16z"/>
  </g>
</svg>
